<?xml version="1.0" encoding="utf-8"?>
<svg viewBox="0 0 512 512" xmlns="http://www.w3.org/2000/svg" xmlns:bx="https://boxy-svg.com">
  <path d="M 474 256 C 474 376.398 376.398 474 256 474 C 135.602 474 38 376.398 38 256 C 38 135.602 135.602 38 256 38 C 376.398 38 474 135.602 474 256 Z M 111.949 253.175 C 111.949 267.268 113.899 281.032 117.799 294.465 C 121.699 307.898 126.959 318.892 133.579 327.445 C 140.192 335.998 147.139 340.275 154.419 340.275 C 153.846 340.275 152.606 338.902 150.699 336.155 C 148.792 333.408 146.536 329.322 143.929 323.895 C 141.329 318.462 138.816 312.352 136.389 305.565 C 133.962 298.772 131.912 290.682 130.239 281.295 C 128.566 271.908 127.729 262.535 127.729 253.175 C 127.729 244.215 128.522 235.475 130.109 226.955 C 131.696 218.428 133.646 211.175 135.959 205.195 C 138.272 199.215 140.712 193.915 143.279 189.295 C 145.852 184.675 148.136 181.238 150.129 178.985 C 152.122 176.732 153.552 175.605 154.419 175.605 C 146.506 175.605 139.256 179.315 132.669 186.735 C 126.082 194.162 120.982 203.798 117.369 215.645 C 113.756 227.485 111.949 239.995 111.949 253.175 Z M 184.191 281.295 C 182.311 279.415 180.101 278.475 177.561 278.475 C 174.901 278.475 172.635 279.415 170.761 281.295 C 168.881 283.175 167.941 285.385 167.941 287.925 C 167.941 290.585 168.881 292.852 170.761 294.725 C 172.635 296.605 174.901 297.545 177.561 297.545 C 180.101 297.545 182.311 296.605 184.191 294.725 C 186.071 292.852 187.011 290.585 187.011 287.925 C 187.011 285.385 186.071 283.175 184.191 281.295 Z M 222.543 258.285 C 222.543 254.758 223.899 250.988 226.613 246.975 C 229.333 242.955 232.613 238.995 236.453 235.095 C 240.299 231.195 244.156 227.195 248.023 223.095 C 251.896 218.995 255.189 214.402 257.903 209.315 C 260.623 204.228 261.983 199.145 261.983 194.065 C 261.983 184.298 259.063 176.382 253.223 170.315 C 247.389 164.248 239.299 161.215 228.953 161.215 C 220.286 161.215 213.066 163.165 207.293 167.065 C 201.513 170.965 198.623 176.238 198.623 182.885 C 198.623 185.138 199.373 187.202 200.873 189.075 C 202.379 190.955 204.693 191.895 207.813 191.895 C 211.279 191.895 213.819 190.652 215.433 188.165 C 214.859 186.258 214.573 184.612 214.573 183.225 C 214.573 179.125 215.973 175.962 218.773 173.735 C 221.573 171.515 224.793 170.405 228.433 170.405 C 240.626 170.405 246.723 176.932 246.723 189.985 C 246.723 192.758 246.059 195.605 244.733 198.525 C 243.406 201.445 241.686 204.248 239.573 206.935 C 237.466 209.622 235.126 212.352 232.553 215.125 C 229.979 217.898 227.409 220.742 224.843 223.655 C 222.269 226.575 219.929 229.508 217.823 232.455 C 215.709 235.402 213.989 238.595 212.663 242.035 C 211.336 245.468 210.673 248.922 210.673 252.395 C 210.673 259.155 214.803 264.442 223.063 268.255 L 226.613 266.255 C 223.899 264.175 222.543 261.518 222.543 258.285 Z M 229.733 281.295 C 227.886 279.415 225.663 278.475 223.063 278.475 C 220.463 278.475 218.223 279.415 216.343 281.295 C 214.469 283.175 213.533 285.385 213.533 287.925 C 213.533 290.585 214.456 292.852 216.303 294.725 C 218.149 296.605 220.403 297.545 223.063 297.545 C 225.663 297.545 227.886 296.605 229.733 294.725 C 231.586 292.852 232.513 290.585 232.513 287.925 C 232.513 285.385 231.586 283.175 229.733 281.295 Z M 315.455 279.955 C 315.455 269.435 315.542 261.315 315.715 255.595 L 317.965 255.595 C 319.645 255.542 321.309 255.542 322.955 255.595 C 324.602 255.655 326.232 255.612 327.845 255.465 C 329.465 255.325 331.012 255.138 332.485 254.905 C 333.959 254.672 335.345 254.252 336.645 253.645 C 337.945 253.038 339.102 252.318 340.115 251.485 C 341.122 250.645 341.989 249.558 342.715 248.225 C 343.435 246.898 343.939 245.338 344.225 243.545 C 343.705 243.892 342.709 244.182 341.235 244.415 C 339.762 244.648 337.959 244.792 335.825 244.845 C 333.685 244.905 331.229 244.935 328.455 244.935 C 325.682 244.935 319.005 244.935 315.885 244.935 C 315.885 242.395 315.915 239.578 315.975 236.485 C 316.035 233.392 316.065 231.732 316.065 231.505 C 316.179 229.652 316.192 227.858 316.105 226.125 C 316.019 224.392 315.845 222.875 315.585 221.575 C 315.325 220.275 314.675 219.235 313.635 218.455 C 312.595 217.675 311.149 217.285 309.295 217.285 C 308.202 217.285 306.295 217.575 303.575 218.155 C 303.982 218.675 304.302 219.658 304.535 221.105 C 304.762 222.545 304.905 224.335 304.965 226.475 C 305.025 228.615 305.055 231.072 305.055 233.845 C 305.055 236.618 305.055 241.815 305.055 244.935 C 287.775 244.935 279.135 244.705 279.135 244.245 L 279.135 255.595 C 279.602 255.482 280.672 255.425 282.345 255.425 C 282.632 255.425 284.019 255.438 286.505 255.465 C 288.992 255.498 291.995 255.528 295.515 255.555 C 299.042 255.582 302.222 255.595 305.055 255.595 C 305.055 273.968 304.795 283.155 304.275 283.155 L 315.715 283.155 C 315.542 282.695 315.455 281.628 315.455 279.955 Z M 394.715 215.645 C 391.102 203.798 386.002 194.162 379.415 186.735 C 372.828 179.315 365.578 175.605 357.665 175.605 C 358.532 175.605 359.945 176.732 361.905 178.985 C 363.872 181.238 366.142 184.675 368.715 189.295 C 371.282 193.915 373.722 199.215 376.035 205.195 C 378.348 211.175 380.298 218.428 381.885 226.955 C 383.472 235.475 384.265 244.215 384.265 253.175 C 384.265 262.535 383.428 271.908 381.755 281.295 C 380.082 290.682 378.032 298.772 375.605 305.565 C 373.178 312.352 370.678 318.462 368.105 323.895 C 365.532 329.322 363.292 333.408 361.385 336.155 C 359.478 338.902 358.238 340.275 357.665 340.275 C 364.885 340.275 371.802 335.998 378.415 327.445 C 385.035 318.892 390.308 307.885 394.235 294.425 C 398.168 280.965 400.135 267.215 400.135 253.175 C 400.135 239.995 398.328 227.485 394.715 215.645 Z" style="fill: rgb(216, 72, 0);"/>
  <path d="M 167.582 154.504 m -250 0 a 250 250 0 1 0 500 0 a 250 250 0 1 0 -500 0 Z M 167.582 154.504 m -237.958 0 a 237.958 237.958 0 0 1 475.916 0 a 237.958 237.958 0 0 1 -475.916 0 Z" style="fill: rgb(216, 72, 0);" transform="matrix(-0.604571, 0.796551, -0.796551, -0.604571, 480.385573, 215.921028)" bx:shape="ring 167.582 154.504 237.958 237.958 250 250 1@2678a38e"/>
</svg>