<?xml version="1.0" encoding="utf-8"?>
<svg viewBox="0 0 512 512" xmlns="http://www.w3.org/2000/svg" xmlns:bx="https://boxy-svg.com">
  <path d="M 167.582 154.504 m -250 0 a 250 250 0 1 0 500 0 a 250 250 0 1 0 -500 0 Z M 167.582 154.504 m -237.958 0 a 237.958 237.958 0 0 1 475.916 0 a 237.958 237.958 0 0 1 -475.916 0 Z" style="fill: rgb(216, 72, 0);" transform="matrix(-0.604571, 0.796551, -0.796551, -0.604571, 480.385573, 215.921028)" bx:shape="ring 167.582 154.504 237.958 237.958 250 250 1@2678a38e"/>
  <path d="M 481 256 C 481 380.264 380.264 481 256 481 C 131.736 481 31 380.264 31 256 C 31 131.736 131.736 31 256 31 C 380.264 31 481 131.736 481 256 Z M 91.906 254.999 C 91.906 271.059 94.129 286.739 98.576 302.039 C 103.016 317.346 109.006 329.869 116.546 339.609 C 124.079 349.349 131.993 354.219 140.286 354.219 C 139.626 354.219 138.213 352.656 136.046 349.529 C 133.873 346.402 131.306 341.746 128.346 335.559 C 125.379 329.372 122.516 322.412 119.756 314.679 C 116.989 306.946 114.653 297.729 112.746 287.029 C 110.833 276.336 109.876 265.659 109.876 254.999 C 109.876 244.792 110.783 234.836 112.596 225.129 C 114.403 215.422 116.623 207.162 119.256 200.349 C 121.889 193.536 124.669 187.496 127.596 182.229 C 130.529 176.962 133.129 173.046 135.396 170.479 C 137.669 167.912 139.299 166.629 140.286 166.629 C 131.273 166.629 123.013 170.859 115.506 179.319 C 107.999 187.779 102.189 198.756 98.076 212.249 C 93.963 225.742 91.906 239.992 91.906 254.999 Z M 174.198 287.029 C 172.058 284.896 169.542 283.829 166.648 283.829 C 163.622 283.829 161.038 284.896 158.898 287.029 C 156.758 289.169 155.688 291.689 155.688 294.589 C 155.688 297.616 156.758 300.199 158.898 302.339 C 161.038 304.479 163.622 305.549 166.648 305.549 C 169.542 305.549 172.058 304.479 174.198 302.339 C 176.338 300.199 177.408 297.616 177.408 294.589 C 177.408 291.689 176.338 289.169 174.198 287.029 Z M 239.901 285.499 C 239.901 273.519 240.001 264.272 240.201 257.759 L 242.771 257.759 C 244.677 257.692 246.567 257.692 248.441 257.759 C 250.321 257.826 252.181 257.776 254.021 257.609 C 255.867 257.449 257.631 257.236 259.311 256.969 C 260.984 256.709 262.561 256.232 264.041 255.539 C 265.527 254.846 266.844 254.022 267.991 253.069 C 269.144 252.116 270.134 250.882 270.961 249.369 C 271.781 247.856 272.354 246.079 272.681 244.039 C 272.087 244.432 270.954 244.759 269.281 245.019 C 267.601 245.286 265.544 245.452 263.111 245.519 C 260.671 245.586 257.871 245.619 254.711 245.619 C 251.557 245.619 243.961 245.619 240.401 245.619 C 240.401 242.719 240.434 239.509 240.501 235.989 C 240.567 232.469 240.601 230.576 240.601 230.309 C 240.727 228.202 240.744 226.162 240.651 224.189 C 240.551 222.216 240.351 220.489 240.051 219.009 C 239.757 217.529 239.017 216.342 237.831 215.449 C 236.644 214.562 234.997 214.119 232.891 214.119 C 231.644 214.119 229.474 214.449 226.381 215.109 C 226.841 215.702 227.201 216.822 227.461 218.469 C 227.727 220.109 227.894 222.149 227.961 224.589 C 228.027 227.022 228.061 229.819 228.061 232.979 C 228.061 236.139 228.061 242.066 228.061 245.619 C 208.381 245.619 198.541 245.356 198.541 244.829 L 198.541 257.759 C 199.067 257.626 200.284 257.559 202.191 257.559 C 202.517 257.559 204.097 257.576 206.931 257.609 C 209.757 257.642 213.181 257.676 217.201 257.709 C 221.214 257.742 224.834 257.759 228.061 257.759 C 228.061 278.692 227.764 289.159 227.171 289.159 L 240.201 289.159 C 240.001 288.632 239.901 287.412 239.901 285.499 Z M 313.066 260.819 C 313.066 256.806 314.612 252.512 317.706 247.939 C 320.799 243.359 324.532 238.849 328.906 234.409 C 333.286 229.969 337.679 225.412 342.086 220.739 C 346.499 216.066 350.252 210.832 353.346 205.039 C 356.439 199.246 357.986 193.452 357.986 187.659 C 357.986 176.539 354.662 167.522 348.016 160.609 C 341.369 153.696 332.152 150.239 320.366 150.239 C 310.492 150.239 302.266 152.462 295.686 156.909 C 289.106 161.349 285.816 167.356 285.816 174.929 C 285.816 177.496 286.672 179.846 288.386 181.979 C 290.092 184.119 292.722 185.189 296.276 185.189 C 300.229 185.189 303.126 183.776 304.966 180.949 C 304.306 178.776 303.976 176.899 303.976 175.319 C 303.976 170.646 305.572 167.042 308.766 164.509 C 311.959 161.976 315.629 160.709 319.776 160.709 C 333.662 160.709 340.606 168.146 340.606 183.019 C 340.606 186.179 339.849 189.422 338.336 192.749 C 336.822 196.069 334.866 199.259 332.466 202.319 C 330.059 205.379 327.392 208.489 324.466 211.649 C 321.539 214.809 318.609 218.052 315.676 221.379 C 312.749 224.699 310.086 228.039 307.686 231.399 C 305.279 234.752 303.319 238.389 301.806 242.309 C 300.292 246.222 299.536 250.156 299.536 254.109 C 299.536 261.809 304.242 267.829 313.656 272.169 L 317.706 269.899 C 314.612 267.532 313.066 264.506 313.066 260.819 Z M 321.256 287.029 C 319.149 284.896 316.616 283.829 313.656 283.829 C 310.696 283.829 308.146 284.896 306.006 287.029 C 303.866 289.169 302.796 291.689 302.796 294.589 C 302.796 297.616 303.849 300.199 305.956 302.339 C 308.062 304.479 310.629 305.549 313.656 305.549 C 316.616 305.549 319.149 304.479 321.256 302.339 C 323.362 300.199 324.416 297.616 324.416 294.589 C 324.416 291.689 323.362 289.169 321.256 287.029 Z M 414.017 212.249 C 409.903 198.756 404.093 187.779 396.587 179.319 C 389.087 170.859 380.827 166.629 371.807 166.629 C 372.793 166.629 374.407 167.912 376.647 170.479 C 378.88 173.046 381.463 176.962 384.397 182.229 C 387.323 187.496 390.103 193.536 392.737 200.349 C 395.37 207.162 397.593 215.422 399.407 225.129 C 401.213 234.836 402.117 244.792 402.117 254.999 C 402.117 265.659 401.163 276.336 399.257 287.029 C 397.343 297.729 395.007 306.946 392.247 314.679 C 389.48 322.412 386.633 329.372 383.707 335.559 C 380.773 341.746 378.223 346.402 376.057 349.529 C 373.883 352.656 372.467 354.219 371.807 354.219 C 380.033 354.219 387.917 349.349 395.457 339.609 C 402.99 329.869 408.993 317.329 413.467 301.989 C 417.947 286.656 420.187 270.992 420.187 254.999 C 420.187 239.992 418.13 225.742 414.017 212.249 Z" style="fill: rgb(216, 72, 0);"/>
</svg>